<svg xmlns="http://www.w3.org/2000/svg" id="mermaid-1570159603826" width="100%" height="100%" style="max-width:1450px" viewBox="-50 -10 1450 981"><style>#mermaid-1570159603826 .actor{stroke:#999;fill:#a176ff}#mermaid-1570159603826 text.actor{fill:#333;stroke:none}#mermaid-1570159603826 .actor-line{stroke:#666}#mermaid-1570159603826 .messageLine0{stroke-width:1.5;stroke-dasharray:&apos;2 2&apos;;stroke:#333}#mermaid-1570159603826 #arrowhead,#mermaid-1570159603826 #sequencenumber{fill:#333}#mermaid-1570159603826 #crosshead path{fill:#333!important;stroke:#333!important}#mermaid-1570159603826 .messageText{fill:#333;stroke:none}</style><style>#mermaid-1570159603826{color:rgba(0,0,0,.65098);font:14px/21px &quot;trebuchet ms&quot;,verdana,arial}</style><g><line id="actor28" x1="75" x2="75" y1="5" y2="970" stroke="#999" stroke-width=".5" class="actor-line"/><rect width="150" height="65" x="0" y="0" fill="#eaeaea" stroke="#666" class="actor" rx="3" ry="3"/><text x="75" y="32.5" style="text-anchor:middle;font-size:14px;font-family:Open-Sans,sans-serif" alignment-baseline="central" class="actor" dominant-baseline="central"><tspan x="75" dy="0">Browser</tspan></text></g><g><line id="actor29" x1="275" x2="275" y1="5" y2="970" stroke="#999" stroke-width=".5" class="actor-line"/><rect width="150" height="65" x="200" y="0" fill="#eaeaea" stroke="#666" class="actor" rx="3" ry="3"/><text x="275" y="32.5" style="text-anchor:middle;font-size:14px;font-family:Open-Sans,sans-serif" alignment-baseline="central" class="actor" dominant-baseline="central"><tspan x="275" dy="0">Identity Provider</tspan></text></g><g><line id="actor30" x1="475" x2="475" y1="5" y2="970" stroke="#999" stroke-width=".5" class="actor-line"/><rect width="150" height="65" x="400" y="0" fill="#eaeaea" stroke="#666" class="actor" rx="3" ry="3"/><text x="475" y="32.5" style="text-anchor:middle;font-size:14px;font-family:Open-Sans,sans-serif" alignment-baseline="central" class="actor" dominant-baseline="central"><tspan x="475" dy="0">Ingress</tspan></text></g><g><line id="actor31" x1="675" x2="675" y1="5" y2="970" stroke="#999" stroke-width=".5" class="actor-line"/><rect width="150" height="65" x="600" y="0" fill="#eaeaea" stroke="#666" class="actor" rx="3" ry="3"/><text x="675" y="32.5" style="text-anchor:middle;font-size:14px;font-family:Open-Sans,sans-serif" alignment-baseline="central" class="actor" dominant-baseline="central"><tspan x="675" dy="0">Pomerium</tspan></text></g><g><line id="actor32" x1="875" x2="875" y1="5" y2="970" stroke="#999" stroke-width=".5" class="actor-line"/><rect width="150" height="65" x="800" y="0" fill="#eaeaea" stroke="#666" class="actor" rx="3" ry="3"/><text x="875" y="32.5" style="text-anchor:middle;font-size:14px;font-family:Open-Sans,sans-serif" alignment-baseline="central" class="actor" dominant-baseline="central"><tspan x="875" dy="0">Pomerium AuthN</tspan></text></g><g><line id="actor33" x1="1075" x2="1075" y1="5" y2="970" stroke="#999" stroke-width=".5" class="actor-line"/><rect width="150" height="65" x="1000" y="0" fill="#eaeaea" stroke="#666" class="actor" rx="3" ry="3"/><text x="1075" y="32.5" style="text-anchor:middle;font-size:14px;font-family:Open-Sans,sans-serif" alignment-baseline="central" class="actor" dominant-baseline="central"><tspan x="1075" dy="0">Pomerium AuthZ</tspan></text></g><g><line id="actor34" x1="1275" x2="1275" y1="5" y2="970" stroke="#999" stroke-width=".5" class="actor-line"/><rect width="150" height="65" x="1200" y="0" fill="#eaeaea" stroke="#666" class="actor" rx="3" ry="3"/><text x="1275" y="32.5" style="text-anchor:middle;font-size:14px;font-family:Open-Sans,sans-serif" alignment-baseline="central" class="actor" dominant-baseline="central"><tspan x="1275" dy="0">app</tspan></text></g><defs><marker id="arrowhead" markerHeight="4" markerWidth="6" orient="auto" refX="5" refY="2"><path d="M 0,0 V 4 L6,2 Z"/></marker></defs><defs><marker id="crosshead" markerHeight="8" markerWidth="15" orient="auto" refX="16" refY="4"><path fill="#000" stroke="#000" style="stroke-dasharray:0,0" stroke-width="1" d="M 9,2 V 6 L16,4 Z"/><path fill="none" stroke="#000" style="stroke-dasharray:0,0" stroke-width="1" d="M 0,1 L 6,7 M 6,1 L 0,7"/></marker></defs><defs><marker id="sequencenumber" markerHeight="40" markerWidth="60" orient="auto" refX="15" refY="15"><circle cx="15" cy="15" r="6"/></marker></defs><g><text x="275" y="93" style="text-anchor:middle" class="messageText">GET /app</text><line x1="75" x2="475" y1="100" y2="100" stroke="#000" stroke-width="2" marker-end="url(#arrowhead)" class="messageLine0" style="fill:none"/></g><g><text x="575" y="128" style="text-anchor:middle" class="messageText">/verify/app</text><line x1="475" x2="675" y1="135" y2="135" stroke="#000" stroke-width="2" marker-end="url(#arrowhead)" class="messageLine0" style="fill:none"/></g><g><text x="675" y="163" style="text-anchor:middle" class="messageText">Authenticated?</text><path stroke="#000" stroke-width="2" marker-end="url(#arrowhead)" d="M 675,170 C 735,160 735,200 675,190" class="messageLine0" style="fill:none"/></g><g><text x="675" y="228" style="text-anchor:middle" class="messageText">No!</text><path stroke="#000" stroke-width="2" marker-end="url(#arrowhead)" d="M 675,235 C 735,225 735,265 675,255" class="messageLine0" style="fill:none"/></g><g><line x1="675" x2="875" y1="300" y2="300" stroke="#000" stroke-width="2" marker-end="url(#arrowhead)" class="messageLine0" style="fill:none"/></g><g><text x="475" y="328" style="text-anchor:middle" class="messageText">HTTP 301 sign in callback url</text><line x1="875" x2="75" y1="335" y2="335" stroke="#000" stroke-width="2" marker-end="url(#arrowhead)" class="messageLine0" style="fill:none"/></g><g><line x1="75" x2="275" y1="370" y2="370" stroke="#000" stroke-width="2" marker-end="url(#arrowhead)" class="messageLine0" style="fill:none"/></g><g><line x1="275" x2="75" y1="405" y2="405" stroke="#000" stroke-width="2" marker-end="url(#arrowhead)" class="messageLine0" style="fill:none"/></g><g><text x="475" y="433" style="text-anchor:middle" class="messageText">HTTP 301: Oauth2 callback endpoint</text><line x1="75" x2="875" y1="440" y2="440" stroke="#000" stroke-width="2" marker-end="url(#arrowhead)" class="messageLine0" style="fill:none"/></g><g><text x="475" y="468" style="text-anchor:middle" class="messageText">Save session</text><line x1="875" x2="75" y1="475" y2="475" stroke="#000" stroke-width="2" marker-end="url(#arrowhead)" class="messageLine0" style="fill:none"/></g><g><text x="275" y="503" style="text-anchor:middle" class="messageText">HTTP 301 app</text><line x1="75" x2="475" y1="510" y2="510" stroke="#000" stroke-width="2" marker-end="url(#arrowhead)" class="messageLine0" style="fill:none"/></g><g><text x="575" y="538" style="text-anchor:middle" class="messageText">/verify/app</text><line x1="475" x2="675" y1="545" y2="545" stroke="#000" stroke-width="2" marker-end="url(#arrowhead)" class="messageLine0" style="fill:none"/></g><g><text x="675" y="573" style="text-anchor:middle" class="messageText">Authenticated?</text><path stroke="#000" stroke-width="2" marker-end="url(#arrowhead)" d="M 675,580 C 735,570 735,610 675,600" class="messageLine0" style="fill:none"/></g><g><text x="675" y="638" style="text-anchor:middle" class="messageText">Yes!</text><path stroke="#000" stroke-width="2" marker-end="url(#arrowhead)" d="M 675,645 C 735,635 735,675 675,665" class="messageLine0" style="fill:none"/></g><g><text x="875" y="703" style="text-anchor:middle" class="messageText">Authorized?</text><line x1="675" x2="1075" y1="710" y2="710" stroke="#000" stroke-width="2" marker-end="url(#arrowhead)" class="messageLine0" style="fill:none"/></g><g><text x="875" y="738" style="text-anchor:middle" class="messageText">Yes?</text><line x1="1075" x2="675" y1="745" y2="745" stroke="#000" stroke-width="2" marker-end="url(#arrowhead)" class="messageLine0" style="fill:none"/></g><g><text x="575" y="773" style="text-anchor:middle" class="messageText">HTTP 200</text><line x1="675" x2="475" y1="780" y2="780" stroke="#000" stroke-width="2" marker-end="url(#arrowhead)" class="messageLine0" style="fill:none"/></g><g><line x1="475" x2="1275" y1="815" y2="815" stroke="#000" stroke-width="2" marker-end="url(#arrowhead)" class="messageLine0" style="fill:none"/></g><g><line x1="1275" x2="475" y1="850" y2="850" stroke="#000" stroke-width="2" marker-end="url(#arrowhead)" class="messageLine0" style="fill:none"/></g><g><text x="275" y="878" style="text-anchor:middle" class="messageText">OK!</text><line x1="475" x2="75" y1="885" y2="885" stroke="#000" stroke-width="2" marker-end="url(#arrowhead)" class="messageLine0" style="fill:none"/></g><g><rect width="150" height="65" x="0" y="905" fill="#eaeaea" stroke="#666" class="actor" rx="3" ry="3"/><text x="75" y="937.5" style="text-anchor:middle;font-size:14px;font-family:Open-Sans,sans-serif" alignment-baseline="central" class="actor" dominant-baseline="central"><tspan x="75" dy="0">Browser</tspan></text></g><g><rect width="150" height="65" x="200" y="905" fill="#eaeaea" stroke="#666" class="actor" rx="3" ry="3"/><text x="275" y="937.5" style="text-anchor:middle;font-size:14px;font-family:Open-Sans,sans-serif" alignment-baseline="central" class="actor" dominant-baseline="central"><tspan x="275" dy="0">Identity Provider</tspan></text></g><g><rect width="150" height="65" x="400" y="905" fill="#eaeaea" stroke="#666" class="actor" rx="3" ry="3"/><text x="475" y="937.5" style="text-anchor:middle;font-size:14px;font-family:Open-Sans,sans-serif" alignment-baseline="central" class="actor" dominant-baseline="central"><tspan x="475" dy="0">Ingress</tspan></text></g><g><rect width="150" height="65" x="600" y="905" fill="#eaeaea" stroke="#666" class="actor" rx="3" ry="3"/><text x="675" y="937.5" style="text-anchor:middle;font-size:14px;font-family:Open-Sans,sans-serif" alignment-baseline="central" class="actor" dominant-baseline="central"><tspan x="675" dy="0">Pomerium</tspan></text></g><g><rect width="150" height="65" x="800" y="905" fill="#eaeaea" stroke="#666" class="actor" rx="3" ry="3"/><text x="875" y="937.5" style="text-anchor:middle;font-size:14px;font-family:Open-Sans,sans-serif" alignment-baseline="central" class="actor" dominant-baseline="central"><tspan x="875" dy="0">Pomerium AuthN</tspan></text></g><g><rect width="150" height="65" x="1000" y="905" fill="#eaeaea" stroke="#666" class="actor" rx="3" ry="3"/><text x="1075" y="937.5" style="text-anchor:middle;font-size:14px;font-family:Open-Sans,sans-serif" alignment-baseline="central" class="actor" dominant-baseline="central"><tspan x="1075" dy="0">Pomerium AuthZ</tspan></text></g><g><rect width="150" height="65" x="1200" y="905" fill="#eaeaea" stroke="#666" class="actor" rx="3" ry="3"/><text x="1275" y="937.5" style="text-anchor:middle;font-size:14px;font-family:Open-Sans,sans-serif" alignment-baseline="central" class="actor" dominant-baseline="central"><tspan x="1275" dy="0">app</tspan></text></g></svg>